<?xml version="1.0" standalone="no"?>
<!DOCTYPE svg PUBLIC "-//W3C//DTD SVG 20010904//EN"
 "http://www.w3.org/TR/2001/REC-SVG-20010904/DTD/svg10.dtd">
<svg version="1.0" xmlns="http://www.w3.org/2000/svg"
 width="260.000000pt" height="260.000000pt" viewBox="0 0 260.000000 260.000000"
 preserveAspectRatio="xMidYMid meet">
<metadata>
Created by potrace 1.11, written by Peter Selinger 2001-2013
</metadata>
<g transform="translate(0.000000,260.000000) scale(0.100000,-0.100000)"
fill="#000000" stroke="none">
<path d="M1090 2575 c-481 -81 -866 -407 -1018 -862 -91 -271 -90 -582 4 -845
137 -384 451 -686 834 -802 188 -56 423 -72 606 -41 471 82 850 398 1008 843
69 195 91 470 52 665 -96 490 -446 877 -913 1008 -175 49 -406 63 -573 34z
m488 -94 c222 -56 406 -157 563 -308 113 -109 175 -191 238 -313 185 -360 184
-764 -2 -1125 -117 -227 -351 -445 -580 -542 -180 -76 -319 -104 -508 -104
-155 0 -292 26 -434 82 -172 67 -273 134 -418 277 -270 266 -399 650 -342
1023 28 190 117 407 224 549 72 95 218 232 317 296 130 85 290 148 456 180
109 20 378 12 486 -15z"/>
<path d="M1155 2424 c-65 -11 -193 -44 -248 -64 l-57 -21 0 -46 c0 -39 2 -44
18 -38 151 62 279 88 432 88 153 0 281 -26 433 -88 15 -6 17 -1 17 38 l0 46
-57 21 c-120 45 -213 61 -363 65 -80 2 -158 1 -175 -1z"/>
<path d="M1840 2247 c0 -42 2 -44 74 -96 211 -151 366 -388 418 -640 17 -80
19 -121 15 -246 -5 -163 -26 -258 -87 -392 -71 -156 -218 -333 -356 -425 -61
-41 -63 -45 -64 -85 0 -24 4 -43 9 -43 19 0 162 101 224 160 146 136 272 350
323 545 32 124 43 313 24 436 -45 309 -229 604 -482 772 -47 31 -88 57 -92 57
-3 0 -6 -19 -6 -43z"/>
<path d="M670 2238 c-81 -53 -206 -171 -271 -257 -70 -93 -164 -286 -196 -406
-24 -91 -27 -116 -27 -280 0 -164 3 -189 27 -280 53 -198 180 -411 322 -544
64 -60 207 -161 226 -161 5 0 9 18 9 40 0 37 -4 42 -75 95 -224 166 -371 396
-421 662 -22 121 -15 345 15 458 62 229 229 464 422 595 55 38 59 43 59 80 0
26 -5 40 -13 40 -7 0 -41 -19 -77 -42z"/>
<path d="M1502 2063 c-80 -39 -108 -150 -58 -224 33 -49 86 -73 146 -67 86 9
140 70 140 161 0 110 -125 181 -228 130z m102 -74 c34 -16 52 -60 35 -91 -16
-30 -28 -38 -63 -38 -65 0 -91 79 -40 119 31 24 35 25 68 10z"/>
<path d="M1015 1617 c-97 -67 -121 -87 -123 -109 -2 -19 3 -30 17 -38 25 -13
38 -6 166 79 l90 61 113 0 c63 0 112 -3 110 -8 -1 -4 -47 -94 -101 -200 -54
-106 -97 -199 -95 -207 2 -8 52 -64 112 -125 l108 -111 -71 -180 c-39 -99 -71
-189 -71 -199 0 -25 34 -44 58 -31 14 7 115 242 178 414 5 13 -21 46 -107 133
l-113 115 112 225 c93 186 111 228 102 244 -10 19 -22 20 -188 19 l-177 0
-120 -82z"/>
<path d="M1512 1538 c-21 -21 -12 -61 31 -143 l42 -80 169 -3 c174 -3 196 2
196 39 0 9 -7 25 -16 34 -14 14 -38 16 -155 13 l-138 -3 -33 68 c-39 81 -67
104 -96 75z"/>
<path d="M1124 1068 c-11 -13 -37 -47 -58 -75 l-38 -53 -163 0 c-172 0 -195
-6 -195 -49 0 -37 18 -41 210 -41 l185 0 69 92 c60 80 68 94 60 117 -12 34
-44 38 -70 9z"/>
<path d="M852 304 l3 -48 84 -28 c231 -78 491 -78 722 0 l84 28 3 48 c3 44 1
48 -15 41 -292 -126 -574 -126 -866 0 -16 7 -18 3 -15 -41z"/>
</g>
</svg>
